<?xml version="1.0" encoding="UTF-8" standalone="no"?>
<!DOCTYPE svg PUBLIC "-//W3C//DTD SVG 1.1//EN"
 "http://www.w3.org/Graphics/SVG/1.1/DTD/svg11.dtd">
<!-- Generated by graphviz version 2.40.1 (20161225.0304)
 -->
<!-- Title: %3 Pages: 1 -->
<svg width="254pt" height="261pt"
 viewBox="0.00 0.00 254.00 261.00" xmlns="http://www.w3.org/2000/svg" xmlns:xlink="http://www.w3.org/1999/xlink">
<g id="graph0" class="graph" transform="scale(1 1) rotate(0) translate(4 257)">
<title>%3</title>
<polygon fill="#ffffff" stroke="transparent" points="-4,4 -4,-257 250,-257 250,4 -4,4"/>
<g id="clust1" class="cluster">
<title>cluster_0</title>
<polygon fill="none" stroke="#ffffff" points="8,-8 8,-245 60,-245 60,-8 8,-8"/>
<text text-anchor="middle" x="34" y="-229.8" font-family="Times,serif" font-size="14.00" fill="#000000">inputs</text>
</g>
<g id="clust2" class="cluster">
<title>cluster_1</title>
<polygon fill="none" stroke="#ffffff" points="80,-35 80,-218 166,-218 166,-35 80,-35"/>
<text text-anchor="middle" x="123" y="-202.8" font-family="Times,serif" font-size="14.00" fill="#000000">hidden layer</text>
</g>
<g id="clust3" class="cluster">
<title>cluster_2</title>
<polygon fill="none" stroke="#ffffff" points="186,-89 186,-164 238,-164 238,-89 186,-89"/>
<text text-anchor="middle" x="212" y="-148.8" font-family="Times,serif" font-size="14.00" fill="#000000">output</text>
</g>
<!-- x[0] -->
<g id="node1" class="node">
<title>x[0]</title>
<ellipse fill="none" stroke="#000000" cx="34" cy="-196" rx="18" ry="18"/>
<text text-anchor="middle" x="34" y="-192.3" font-family="Times,serif" font-size="14.00" fill="#000000">x[0]</text>
</g>
<!-- h0 -->
<g id="node5" class="node">
<title>h0</title>
<ellipse fill="none" stroke="#000000" cx="123" cy="-61" rx="18" ry="18"/>
<text text-anchor="middle" x="123" y="-57.3" font-family="Times,serif" font-size="14.00" fill="#000000">h[0]</text>
</g>
<!-- x[0]&#45;&gt;h0 -->
<g id="edge1" class="edge">
<title>x[0]&#45;&gt;h0</title>
<path fill="none" stroke="#000000" d="M44.0364,-180.7762C59.3935,-157.4817 88.8604,-112.7848 107.1327,-85.0684"/>
<polygon fill="#000000" stroke="#000000" points="110.2817,-86.6507 112.8637,-76.3753 104.4374,-82.7978 110.2817,-86.6507"/>
</g>
<!-- h1 -->
<g id="node6" class="node">
<title>h1</title>
<ellipse fill="none" stroke="#000000" cx="123" cy="-169" rx="18" ry="18"/>
<text text-anchor="middle" x="123" y="-165.3" font-family="Times,serif" font-size="14.00" fill="#000000">h[1]</text>
</g>
<!-- x[0]&#45;&gt;h1 -->
<g id="edge2" class="edge">
<title>x[0]&#45;&gt;h1</title>
<path fill="none" stroke="#000000" d="M51.5835,-190.6657C64.2205,-186.832 81.4963,-181.591 95.891,-177.2241"/>
<polygon fill="#000000" stroke="#000000" points="97.2026,-180.4838 105.7558,-174.2314 95.1704,-173.7852 97.2026,-180.4838"/>
</g>
<!-- h2 -->
<g id="node7" class="node">
<title>h2</title>
<ellipse fill="none" stroke="#000000" cx="123" cy="-115" rx="18" ry="18"/>
<text text-anchor="middle" x="123" y="-111.3" font-family="Times,serif" font-size="14.00" fill="#000000">h[2]</text>
</g>
<!-- x[0]&#45;&gt;h2 -->
<g id="edge3" class="edge">
<title>x[0]&#45;&gt;h2</title>
<path fill="none" stroke="#000000" d="M47.5172,-183.6978C61.9764,-170.5384 85.0993,-149.4939 101.9464,-134.1611"/>
<polygon fill="#000000" stroke="#000000" points="104.6074,-136.4719 109.6472,-127.1525 99.8957,-131.2949 104.6074,-136.4719"/>
</g>
<!-- x[1] -->
<g id="node2" class="node">
<title>x[1]</title>
<ellipse fill="none" stroke="#000000" cx="34" cy="-142" rx="18" ry="18"/>
<text text-anchor="middle" x="34" y="-138.3" font-family="Times,serif" font-size="14.00" fill="#000000">x[1]</text>
</g>
<!-- x[1]&#45;&gt;h0 -->
<g id="edge4" class="edge">
<title>x[1]&#45;&gt;h0</title>
<path fill="none" stroke="#000000" d="M47.5172,-129.6978C61.9764,-116.5384 85.0993,-95.4939 101.9464,-80.1611"/>
<polygon fill="#000000" stroke="#000000" points="104.6074,-82.4719 109.6472,-73.1525 99.8957,-77.2949 104.6074,-82.4719"/>
</g>
<!-- x[1]&#45;&gt;h1 -->
<g id="edge5" class="edge">
<title>x[1]&#45;&gt;h1</title>
<path fill="none" stroke="#000000" d="M51.5835,-147.3343C64.2205,-151.168 81.4963,-156.409 95.891,-160.7759"/>
<polygon fill="#000000" stroke="#000000" points="95.1704,-164.2148 105.7558,-163.7686 97.2026,-157.5162 95.1704,-164.2148"/>
</g>
<!-- x[1]&#45;&gt;h2 -->
<g id="edge6" class="edge">
<title>x[1]&#45;&gt;h2</title>
<path fill="none" stroke="#000000" d="M51.5835,-136.6657C64.2205,-132.832 81.4963,-127.591 95.891,-123.2241"/>
<polygon fill="#000000" stroke="#000000" points="97.2026,-126.4838 105.7558,-120.2314 95.1704,-119.7852 97.2026,-126.4838"/>
</g>
<!-- x[2] -->
<g id="node3" class="node">
<title>x[2]</title>
<ellipse fill="none" stroke="#000000" cx="34" cy="-88" rx="18" ry="18"/>
<text text-anchor="middle" x="34" y="-84.3" font-family="Times,serif" font-size="14.00" fill="#000000">x[2]</text>
</g>
<!-- x[2]&#45;&gt;h0 -->
<g id="edge7" class="edge">
<title>x[2]&#45;&gt;h0</title>
<path fill="none" stroke="#000000" d="M51.5835,-82.6657C64.2205,-78.832 81.4963,-73.591 95.891,-69.2241"/>
<polygon fill="#000000" stroke="#000000" points="97.2026,-72.4838 105.7558,-66.2314 95.1704,-65.7852 97.2026,-72.4838"/>
</g>
<!-- x[2]&#45;&gt;h1 -->
<g id="edge8" class="edge">
<title>x[2]&#45;&gt;h1</title>
<path fill="none" stroke="#000000" d="M47.5172,-100.3022C61.9764,-113.4616 85.0993,-134.5061 101.9464,-149.8389"/>
<polygon fill="#000000" stroke="#000000" points="99.8957,-152.7051 109.6472,-156.8475 104.6074,-147.5281 99.8957,-152.7051"/>
</g>
<!-- x[2]&#45;&gt;h2 -->
<g id="edge9" class="edge">
<title>x[2]&#45;&gt;h2</title>
<path fill="none" stroke="#000000" d="M51.5835,-93.3343C64.2205,-97.168 81.4963,-102.409 95.891,-106.7759"/>
<polygon fill="#000000" stroke="#000000" points="95.1704,-110.2148 105.7558,-109.7686 97.2026,-103.5162 95.1704,-110.2148"/>
</g>
<!-- x[3] -->
<g id="node4" class="node">
<title>x[3]</title>
<ellipse fill="none" stroke="#000000" cx="34" cy="-34" rx="18" ry="18"/>
<text text-anchor="middle" x="34" y="-30.3" font-family="Times,serif" font-size="14.00" fill="#000000">x[3]</text>
</g>
<!-- x[3]&#45;&gt;h0 -->
<g id="edge10" class="edge">
<title>x[3]&#45;&gt;h0</title>
<path fill="none" stroke="#000000" d="M51.5835,-39.3343C64.2205,-43.168 81.4963,-48.409 95.891,-52.7759"/>
<polygon fill="#000000" stroke="#000000" points="95.1704,-56.2148 105.7558,-55.7686 97.2026,-49.5162 95.1704,-56.2148"/>
</g>
<!-- x[3]&#45;&gt;h1 -->
<g id="edge11" class="edge">
<title>x[3]&#45;&gt;h1</title>
<path fill="none" stroke="#000000" d="M44.0364,-49.2238C59.3935,-72.5183 88.8604,-117.2152 107.1327,-144.9316"/>
<polygon fill="#000000" stroke="#000000" points="104.4374,-147.2022 112.8637,-153.6247 110.2817,-143.3493 104.4374,-147.2022"/>
</g>
<!-- x[3]&#45;&gt;h2 -->
<g id="edge12" class="edge">
<title>x[3]&#45;&gt;h2</title>
<path fill="none" stroke="#000000" d="M47.5172,-46.3022C61.9764,-59.4616 85.0993,-80.5061 101.9464,-95.8389"/>
<polygon fill="#000000" stroke="#000000" points="99.8957,-98.7051 109.6472,-102.8475 104.6074,-93.5281 99.8957,-98.7051"/>
</g>
<!-- y -->
<g id="node8" class="node">
<title>y</title>
<ellipse fill="none" stroke="#000000" cx="212" cy="-115" rx="18" ry="18"/>
<text text-anchor="middle" x="212" y="-111.3" font-family="Times,serif" font-size="14.00" fill="#000000">y</text>
</g>
<!-- h0&#45;&gt;y -->
<g id="edge13" class="edge">
<title>h0&#45;&gt;y</title>
<path fill="none" stroke="#000000" d="M138.5026,-70.4061C152.0747,-78.6408 172.0207,-90.7429 187.7106,-100.2626"/>
<polygon fill="#000000" stroke="#000000" points="186.0114,-103.3255 196.3764,-105.5205 189.6426,-97.3409 186.0114,-103.3255"/>
</g>
<!-- h1&#45;&gt;y -->
<g id="edge14" class="edge">
<title>h1&#45;&gt;y</title>
<path fill="none" stroke="#000000" d="M138.5026,-159.5939C152.0747,-151.3592 172.0207,-139.2571 187.7106,-129.7374"/>
<polygon fill="#000000" stroke="#000000" points="189.6426,-132.6591 196.3764,-124.4795 186.0114,-126.6745 189.6426,-132.6591"/>
</g>
<!-- h2&#45;&gt;y -->
<g id="edge15" class="edge">
<title>h2&#45;&gt;y</title>
<path fill="none" stroke="#000000" d="M141.0105,-115C153.2342,-115 169.6505,-115 183.6176,-115"/>
<polygon fill="#000000" stroke="#000000" points="183.7109,-118.5001 193.7108,-115 183.7108,-111.5001 183.7109,-118.5001"/>
</g>
</g>
</svg>
