<?xml version="1.0" encoding="UTF-8" standalone="no"?>
<!DOCTYPE svg PUBLIC "-//W3C//DTD SVG 1.1//EN"
 "http://www.w3.org/Graphics/SVG/1.1/DTD/svg11.dtd">
<!-- Generated by graphviz version 2.40.1 (20161225.0304)
 -->
<!-- Title: %3 Pages: 1 -->
<svg width="382pt" height="261pt"
 viewBox="0.00 0.00 382.00 261.00" xmlns="http://www.w3.org/2000/svg" xmlns:xlink="http://www.w3.org/1999/xlink">
<g id="graph0" class="graph" transform="scale(1 1) rotate(0) translate(4 257)">
<title>%3</title>
<polygon fill="#ffffff" stroke="transparent" points="-4,4 -4,-257 378,-257 378,4 -4,4"/>
<g id="clust1" class="cluster">
<title>cluster_0</title>
<polygon fill="none" stroke="#ffffff" points="8,-8 8,-245 60,-245 60,-8 8,-8"/>
<text text-anchor="middle" x="34" y="-229.8" font-family="Times,serif" font-size="14.00" fill="#000000">inputs</text>
</g>
<g id="clust2" class="cluster">
<title>cluster_1</title>
<polygon fill="none" stroke="#ffffff" points="80,-35 80,-218 177,-218 177,-35 80,-35"/>
<text text-anchor="middle" x="128.5" y="-202.8" font-family="Times,serif" font-size="14.00" fill="#000000">hidden layer 1</text>
</g>
<g id="clust3" class="cluster">
<title>cluster_2</title>
<polygon fill="none" stroke="#ffffff" points="197,-35 197,-218 294,-218 294,-35 197,-35"/>
<text text-anchor="middle" x="245.5" y="-202.8" font-family="Times,serif" font-size="14.00" fill="#000000">hidden layer 2</text>
</g>
<g id="clust4" class="cluster">
<title>cluster_3</title>
<polygon fill="none" stroke="#ffffff" points="314,-89 314,-164 366,-164 366,-89 314,-89"/>
<text text-anchor="middle" x="340" y="-148.8" font-family="Times,serif" font-size="14.00" fill="#000000">output</text>
</g>
<!-- x[0] -->
<g id="node1" class="node">
<title>x[0]</title>
<ellipse fill="none" stroke="#000000" cx="34" cy="-196" rx="18" ry="18"/>
<text text-anchor="middle" x="34" y="-192.3" font-family="Times,serif" font-size="14.00" fill="#000000">x[0]</text>
</g>
<!-- h1[0] -->
<g id="node5" class="node">
<title>h1[0]</title>
<ellipse fill="none" stroke="#000000" cx="128" cy="-61" rx="18" ry="18"/>
<text text-anchor="middle" x="128" y="-57.3" font-family="Times,serif" font-size="14.00" fill="#000000">h1[0]</text>
</g>
<!-- x[0]&#45;&gt;h1[0] -->
<g id="edge1" class="edge">
<title>x[0]&#45;&gt;h1[0]</title>
<path fill="none" stroke="#000000" d="M44.4188,-181.0368C60.723,-157.6212 92.3974,-112.1314 111.7274,-84.3702"/>
<polygon fill="#000000" stroke="#000000" points="114.6926,-86.2368 117.5345,-76.0302 108.948,-82.2368 114.6926,-86.2368"/>
</g>
<!-- h1[1] -->
<g id="node6" class="node">
<title>h1[1]</title>
<ellipse fill="none" stroke="#000000" cx="128" cy="-169" rx="18" ry="18"/>
<text text-anchor="middle" x="128" y="-165.3" font-family="Times,serif" font-size="14.00" fill="#000000">h1[1]</text>
</g>
<!-- x[0]&#45;&gt;h1[1] -->
<g id="edge2" class="edge">
<title>x[0]&#45;&gt;h1[1]</title>
<path fill="none" stroke="#000000" d="M51.6807,-190.9215C65.4666,-186.9617 84.8559,-181.3924 100.6411,-176.8584"/>
<polygon fill="#000000" stroke="#000000" points="101.7535,-180.1805 110.3986,-174.0557 99.8209,-173.4525 101.7535,-180.1805"/>
</g>
<!-- h1[2] -->
<g id="node7" class="node">
<title>h1[2]</title>
<ellipse fill="none" stroke="#000000" cx="128" cy="-115" rx="18" ry="18"/>
<text text-anchor="middle" x="128" y="-111.3" font-family="Times,serif" font-size="14.00" fill="#000000">h1[2]</text>
</g>
<!-- x[0]&#45;&gt;h1[2] -->
<g id="edge3" class="edge">
<title>x[0]&#45;&gt;h1[2]</title>
<path fill="none" stroke="#000000" d="M47.87,-184.0482C63.2819,-170.7677 88.3638,-149.1546 106.3622,-133.6453"/>
<polygon fill="#000000" stroke="#000000" points="108.7823,-136.1801 114.0731,-127.0009 104.2128,-130.8773 108.7823,-136.1801"/>
</g>
<!-- x[1] -->
<g id="node2" class="node">
<title>x[1]</title>
<ellipse fill="none" stroke="#000000" cx="34" cy="-142" rx="18" ry="18"/>
<text text-anchor="middle" x="34" y="-138.3" font-family="Times,serif" font-size="14.00" fill="#000000">x[1]</text>
</g>
<!-- x[1]&#45;&gt;h1[0] -->
<g id="edge4" class="edge">
<title>x[1]&#45;&gt;h1[0]</title>
<path fill="none" stroke="#000000" d="M47.87,-130.0482C63.2819,-116.7677 88.3638,-95.1546 106.3622,-79.6453"/>
<polygon fill="#000000" stroke="#000000" points="108.7823,-82.1801 114.0731,-73.0009 104.2128,-76.8773 108.7823,-82.1801"/>
</g>
<!-- x[1]&#45;&gt;h1[1] -->
<g id="edge5" class="edge">
<title>x[1]&#45;&gt;h1[1]</title>
<path fill="none" stroke="#000000" d="M51.6807,-147.0785C65.4666,-151.0383 84.8559,-156.6076 100.6411,-161.1416"/>
<polygon fill="#000000" stroke="#000000" points="99.8209,-164.5475 110.3986,-163.9443 101.7535,-157.8195 99.8209,-164.5475"/>
</g>
<!-- x[1]&#45;&gt;h1[2] -->
<g id="edge6" class="edge">
<title>x[1]&#45;&gt;h1[2]</title>
<path fill="none" stroke="#000000" d="M51.6807,-136.9215C65.4666,-132.9617 84.8559,-127.3924 100.6411,-122.8584"/>
<polygon fill="#000000" stroke="#000000" points="101.7535,-126.1805 110.3986,-120.0557 99.8209,-119.4525 101.7535,-126.1805"/>
</g>
<!-- x[2] -->
<g id="node3" class="node">
<title>x[2]</title>
<ellipse fill="none" stroke="#000000" cx="34" cy="-88" rx="18" ry="18"/>
<text text-anchor="middle" x="34" y="-84.3" font-family="Times,serif" font-size="14.00" fill="#000000">x[2]</text>
</g>
<!-- x[2]&#45;&gt;h1[0] -->
<g id="edge7" class="edge">
<title>x[2]&#45;&gt;h1[0]</title>
<path fill="none" stroke="#000000" d="M51.6807,-82.9215C65.4666,-78.9617 84.8559,-73.3924 100.6411,-68.8584"/>
<polygon fill="#000000" stroke="#000000" points="101.7535,-72.1805 110.3986,-66.0557 99.8209,-65.4525 101.7535,-72.1805"/>
</g>
<!-- x[2]&#45;&gt;h1[1] -->
<g id="edge8" class="edge">
<title>x[2]&#45;&gt;h1[1]</title>
<path fill="none" stroke="#000000" d="M47.87,-99.9518C63.2819,-113.2323 88.3638,-134.8454 106.3622,-150.3547"/>
<polygon fill="#000000" stroke="#000000" points="104.2128,-153.1227 114.0731,-156.9991 108.7823,-147.8199 104.2128,-153.1227"/>
</g>
<!-- x[2]&#45;&gt;h1[2] -->
<g id="edge9" class="edge">
<title>x[2]&#45;&gt;h1[2]</title>
<path fill="none" stroke="#000000" d="M51.6807,-93.0785C65.4666,-97.0383 84.8559,-102.6076 100.6411,-107.1416"/>
<polygon fill="#000000" stroke="#000000" points="99.8209,-110.5475 110.3986,-109.9443 101.7535,-103.8195 99.8209,-110.5475"/>
</g>
<!-- x[3] -->
<g id="node4" class="node">
<title>x[3]</title>
<ellipse fill="none" stroke="#000000" cx="34" cy="-34" rx="18" ry="18"/>
<text text-anchor="middle" x="34" y="-30.3" font-family="Times,serif" font-size="14.00" fill="#000000">x[3]</text>
</g>
<!-- x[3]&#45;&gt;h1[0] -->
<g id="edge10" class="edge">
<title>x[3]&#45;&gt;h1[0]</title>
<path fill="none" stroke="#000000" d="M51.6807,-39.0785C65.4666,-43.0383 84.8559,-48.6076 100.6411,-53.1416"/>
<polygon fill="#000000" stroke="#000000" points="99.8209,-56.5475 110.3986,-55.9443 101.7535,-49.8195 99.8209,-56.5475"/>
</g>
<!-- x[3]&#45;&gt;h1[1] -->
<g id="edge11" class="edge">
<title>x[3]&#45;&gt;h1[1]</title>
<path fill="none" stroke="#000000" d="M44.4188,-48.9632C60.723,-72.3788 92.3974,-117.8686 111.7274,-145.6298"/>
<polygon fill="#000000" stroke="#000000" points="108.948,-147.7632 117.5345,-153.9698 114.6926,-143.7632 108.948,-147.7632"/>
</g>
<!-- x[3]&#45;&gt;h1[2] -->
<g id="edge12" class="edge">
<title>x[3]&#45;&gt;h1[2]</title>
<path fill="none" stroke="#000000" d="M47.87,-45.9518C63.2819,-59.2323 88.3638,-80.8454 106.3622,-96.3547"/>
<polygon fill="#000000" stroke="#000000" points="104.2128,-99.1227 114.0731,-102.9991 108.7823,-93.8199 104.2128,-99.1227"/>
</g>
<!-- h2[0] -->
<g id="node8" class="node">
<title>h2[0]</title>
<ellipse fill="none" stroke="#000000" cx="245" cy="-61" rx="18" ry="18"/>
<text text-anchor="middle" x="245" y="-57.3" font-family="Times,serif" font-size="14.00" fill="#000000">h2[0]</text>
</g>
<!-- h1[0]&#45;&gt;h2[0] -->
<g id="edge13" class="edge">
<title>h1[0]&#45;&gt;h2[0]</title>
<path fill="none" stroke="#000000" d="M146.0248,-61C164.8644,-61 194.6888,-61 216.6787,-61"/>
<polygon fill="#000000" stroke="#000000" points="216.7619,-64.5001 226.7619,-61 216.7619,-57.5001 216.7619,-64.5001"/>
</g>
<!-- h2[1] -->
<g id="node9" class="node">
<title>h2[1]</title>
<ellipse fill="none" stroke="#000000" cx="245" cy="-169" rx="18" ry="18"/>
<text text-anchor="middle" x="245" y="-165.3" font-family="Times,serif" font-size="14.00" fill="#000000">h2[1]</text>
</g>
<!-- h1[0]&#45;&gt;h2[1] -->
<g id="edge14" class="edge">
<title>h1[0]&#45;&gt;h2[1]</title>
<path fill="none" stroke="#000000" d="M141.4214,-73.389C161.6981,-92.106 200.3082,-127.7461 224.2324,-149.8299"/>
<polygon fill="#000000" stroke="#000000" points="222.0131,-152.5445 231.7351,-156.7555 226.7611,-147.4009 222.0131,-152.5445"/>
</g>
<!-- h2[2] -->
<g id="node10" class="node">
<title>h2[2]</title>
<ellipse fill="none" stroke="#000000" cx="245" cy="-115" rx="18" ry="18"/>
<text text-anchor="middle" x="245" y="-111.3" font-family="Times,serif" font-size="14.00" fill="#000000">h2[2]</text>
</g>
<!-- h1[0]&#45;&gt;h2[2] -->
<g id="edge15" class="edge">
<title>h1[0]&#45;&gt;h2[2]</title>
<path fill="none" stroke="#000000" d="M144.5151,-68.6224C164.0264,-77.6276 196.7074,-92.7111 219.4821,-103.2225"/>
<polygon fill="#000000" stroke="#000000" points="218.0226,-106.4036 228.5689,-107.4164 220.956,-100.0479 218.0226,-106.4036"/>
</g>
<!-- h1[1]&#45;&gt;h2[0] -->
<g id="edge16" class="edge">
<title>h1[1]&#45;&gt;h2[0]</title>
<path fill="none" stroke="#000000" d="M141.4214,-156.611C161.6981,-137.894 200.3082,-102.2539 224.2324,-80.1701"/>
<polygon fill="#000000" stroke="#000000" points="226.7611,-82.5991 231.7351,-73.2445 222.0131,-77.4555 226.7611,-82.5991"/>
</g>
<!-- h1[1]&#45;&gt;h2[1] -->
<g id="edge17" class="edge">
<title>h1[1]&#45;&gt;h2[1]</title>
<path fill="none" stroke="#000000" d="M146.0248,-169C164.8644,-169 194.6888,-169 216.6787,-169"/>
<polygon fill="#000000" stroke="#000000" points="216.7619,-172.5001 226.7619,-169 216.7619,-165.5001 216.7619,-172.5001"/>
</g>
<!-- h1[1]&#45;&gt;h2[2] -->
<g id="edge18" class="edge">
<title>h1[1]&#45;&gt;h2[2]</title>
<path fill="none" stroke="#000000" d="M144.5151,-161.3776C164.0264,-152.3724 196.7074,-137.2889 219.4821,-126.7775"/>
<polygon fill="#000000" stroke="#000000" points="220.956,-129.9521 228.5689,-122.5836 218.0226,-123.5964 220.956,-129.9521"/>
</g>
<!-- h1[2]&#45;&gt;h2[0] -->
<g id="edge19" class="edge">
<title>h1[2]&#45;&gt;h2[0]</title>
<path fill="none" stroke="#000000" d="M144.5151,-107.3776C164.0264,-98.3724 196.7074,-83.2889 219.4821,-72.7775"/>
<polygon fill="#000000" stroke="#000000" points="220.956,-75.9521 228.5689,-68.5836 218.0226,-69.5964 220.956,-75.9521"/>
</g>
<!-- h1[2]&#45;&gt;h2[1] -->
<g id="edge20" class="edge">
<title>h1[2]&#45;&gt;h2[1]</title>
<path fill="none" stroke="#000000" d="M144.5151,-122.6224C164.0264,-131.6276 196.7074,-146.7111 219.4821,-157.2225"/>
<polygon fill="#000000" stroke="#000000" points="218.0226,-160.4036 228.5689,-161.4164 220.956,-154.0479 218.0226,-160.4036"/>
</g>
<!-- h1[2]&#45;&gt;h2[2] -->
<g id="edge21" class="edge">
<title>h1[2]&#45;&gt;h2[2]</title>
<path fill="none" stroke="#000000" d="M146.0248,-115C164.8644,-115 194.6888,-115 216.6787,-115"/>
<polygon fill="#000000" stroke="#000000" points="216.7619,-118.5001 226.7619,-115 216.7619,-111.5001 216.7619,-118.5001"/>
</g>
<!-- y -->
<g id="node11" class="node">
<title>y</title>
<ellipse fill="none" stroke="#000000" cx="340" cy="-115" rx="18" ry="18"/>
<text text-anchor="middle" x="340" y="-111.3" font-family="Times,serif" font-size="14.00" fill="#000000">y</text>
</g>
<!-- h2[0]&#45;&gt;y -->
<g id="edge22" class="edge">
<title>h2[0]&#45;&gt;y</title>
<path fill="none" stroke="#000000" d="M260.6873,-69.917C275.539,-78.359 298.0698,-91.166 315.3269,-100.9753"/>
<polygon fill="#000000" stroke="#000000" points="313.8661,-104.1708 324.2894,-106.0698 317.3253,-98.0852 313.8661,-104.1708"/>
</g>
<!-- h2[1]&#45;&gt;y -->
<g id="edge23" class="edge">
<title>h2[1]&#45;&gt;y</title>
<path fill="none" stroke="#000000" d="M260.6873,-160.083C275.539,-151.641 298.0698,-138.834 315.3269,-129.0247"/>
<polygon fill="#000000" stroke="#000000" points="317.3253,-131.9148 324.2894,-123.9302 313.8661,-125.8292 317.3253,-131.9148"/>
</g>
<!-- h2[2]&#45;&gt;y -->
<g id="edge24" class="edge">
<title>h2[2]&#45;&gt;y</title>
<path fill="none" stroke="#000000" d="M263.317,-115C276.9851,-115 295.9167,-115 311.5492,-115"/>
<polygon fill="#000000" stroke="#000000" points="311.7393,-118.5001 321.7393,-115 311.7392,-111.5001 311.7393,-118.5001"/>
</g>
</g>
</svg>
