<?xml version="1.0" encoding="UTF-8" standalone="no"?>
<!DOCTYPE svg PUBLIC "-//W3C//DTD SVG 1.1//EN"
 "http://www.w3.org/Graphics/SVG/1.1/DTD/svg11.dtd">
<!-- Generated by graphviz version 2.40.1 (20161225.0304)
 -->
<!-- Title: %3 Pages: 1 -->
<svg width="175pt" height="261pt"
 viewBox="0.00 0.00 175.00 261.00" xmlns="http://www.w3.org/2000/svg" xmlns:xlink="http://www.w3.org/1999/xlink">
<g id="graph0" class="graph" transform="scale(1 1) rotate(0) translate(4 257)">
<title>%3</title>
<polygon fill="#ffffff" stroke="transparent" points="-4,4 -4,-257 171,-257 171,4 -4,4"/>
<g id="clust1" class="cluster">
<title>cluster_0</title>
<polygon fill="none" stroke="#ffffff" points="8,-8 8,-245 60,-245 60,-8 8,-8"/>
<text text-anchor="middle" x="34" y="-229.8" font-family="Times,serif" font-size="14.00" fill="#000000">inputs</text>
</g>
<g id="clust2" class="cluster">
<title>cluster_2</title>
<polygon fill="none" stroke="#ffffff" points="107,-89 107,-164 159,-164 159,-89 107,-89"/>
<text text-anchor="middle" x="133" y="-148.8" font-family="Times,serif" font-size="14.00" fill="#000000">output</text>
</g>
<!-- x[0] -->
<g id="node1" class="node">
<title>x[0]</title>
<ellipse fill="none" stroke="#000000" cx="34" cy="-196" rx="18" ry="18"/>
<text text-anchor="middle" x="34" y="-192.3" font-family="Times,serif" font-size="14.00" fill="#000000">x[0]</text>
</g>
<!-- y -->
<g id="node5" class="node">
<title>y</title>
<ellipse fill="none" stroke="#000000" cx="133" cy="-115" rx="18" ry="18"/>
<text text-anchor="middle" x="133" y="-111.3" font-family="Times,serif" font-size="14.00" fill="#000000">y</text>
</g>
<!-- x[0]&#45;&gt;y -->
<g id="edge1" class="edge">
<title>x[0]&#45;&gt;y</title>
<path fill="none" stroke="#000000" d="M48.1843,-184.3947C64.5782,-170.9815 91.7557,-148.7454 110.921,-133.0647"/>
<polygon fill="#000000" stroke="#000000" points="113.3188,-135.6251 118.842,-126.5838 108.8861,-130.2074 113.3188,-135.6251"/>
<text text-anchor="middle" x="83.5" y="-171.8" font-family="Times,serif" font-size="14.00" fill="#000000">w[0]</text>
</g>
<!-- x[1] -->
<g id="node2" class="node">
<title>x[1]</title>
<ellipse fill="none" stroke="#000000" cx="34" cy="-142" rx="18" ry="18"/>
<text text-anchor="middle" x="34" y="-138.3" font-family="Times,serif" font-size="14.00" fill="#000000">x[1]</text>
</g>
<!-- x[1]&#45;&gt;y -->
<g id="edge2" class="edge">
<title>x[1]&#45;&gt;y</title>
<path fill="none" stroke="#000000" d="M51.6992,-137.1729C66.622,-133.1031 88.2316,-127.2096 105.4214,-122.5214"/>
<polygon fill="#000000" stroke="#000000" points="106.7273,-125.7932 115.454,-119.7853 104.8854,-119.0398 106.7273,-125.7932"/>
<text text-anchor="middle" x="83.5" y="-134.8" font-family="Times,serif" font-size="14.00" fill="#000000">w[1]</text>
</g>
<!-- x[2] -->
<g id="node3" class="node">
<title>x[2]</title>
<ellipse fill="none" stroke="#000000" cx="34" cy="-88" rx="18" ry="18"/>
<text text-anchor="middle" x="34" y="-84.3" font-family="Times,serif" font-size="14.00" fill="#000000">x[2]</text>
</g>
<!-- x[2]&#45;&gt;y -->
<g id="edge3" class="edge">
<title>x[2]&#45;&gt;y</title>
<path fill="none" stroke="#000000" d="M51.6992,-92.8271C66.622,-96.8969 88.2316,-102.7904 105.4214,-107.4786"/>
<polygon fill="#000000" stroke="#000000" points="104.8854,-110.9602 115.454,-110.2147 106.7273,-104.2068 104.8854,-110.9602"/>
<text text-anchor="middle" x="83.5" y="-107.8" font-family="Times,serif" font-size="14.00" fill="#000000">w[2]</text>
</g>
<!-- x[3] -->
<g id="node4" class="node">
<title>x[3]</title>
<ellipse fill="none" stroke="#000000" cx="34" cy="-34" rx="18" ry="18"/>
<text text-anchor="middle" x="34" y="-30.3" font-family="Times,serif" font-size="14.00" fill="#000000">x[3]</text>
</g>
<!-- x[3]&#45;&gt;y -->
<g id="edge4" class="edge">
<title>x[3]&#45;&gt;y</title>
<path fill="none" stroke="#000000" d="M48.1843,-45.6053C64.5782,-59.0185 91.7557,-81.2546 110.921,-96.9353"/>
<polygon fill="#000000" stroke="#000000" points="108.8861,-99.7926 118.842,-103.4162 113.3188,-94.3749 108.8861,-99.7926"/>
<text text-anchor="middle" x="83.5" y="-82.8" font-family="Times,serif" font-size="14.00" fill="#000000">w[3]</text>
</g>
</g>
</svg>
